<svg xmlns="http://www.w3.org/2000/svg" width="33.103" height="34.244" viewBox="0 0 33.103 34.244"><defs><style>.a{fill:#c1b4a5;}</style></defs><g transform="translate(-3 -2)"><path class="a" d="M42.415,32.047,36.471,37.99H31v3.424h.571a.571.571,0,0,1,0,1.141H31v5.707H48.122V43.7h-.571a1.141,1.141,0,1,1,0-2.283h.571V37.99h-4.33l2.283-2.283-.571-.571,2.45-2.45a.571.571,0,0,0,0-.807l-1.712-1.712a.571.571,0,0,0-.807,0l-2.45,2.45Zm4.566,7.085v1.213a2.283,2.283,0,0,0,0,4.422v2.355H32.141V43.6a1.712,1.712,0,0,0,0-3.229V39.132Zm-4.8-1.141H38.085l4.33-4.33,2.047,2.047Zm3.661-6.613.905.905L44.7,34.33l-.905-.905Z" transform="translate(-12.019 -12.019)"/><path class="a" d="M39.712,55.424A1.712,1.712,0,1,0,38,53.712,1.712,1.712,0,0,0,39.712,55.424Zm0-2.283a.571.571,0,1,1-.571.571A.571.571,0,0,1,39.712,53.141Z" transform="translate(-15.024 -21.463)"/><path class="a" d="M48.712,51.424A1.712,1.712,0,1,0,47,49.712a1.712,1.712,0,0,0,1.712,1.712Zm0-2.283a.571.571,0,1,1-.571.571A.571.571,0,0,1,48.712,49.141Z" transform="translate(-18.887 -19.746)"/><rect class="a" width="1.615" height="1.615" transform="translate(23.992 28.17)"/><rect class="a" width="1.615" height="0.807" transform="translate(27.222 32.207)"/><path class="a" d="M22.214,30.469h1.141V26.3l-1.237-1.856-.95.634,1.046,1.568Z" transform="translate(-7.799 -9.635)"/><rect class="a" width="1.615" height="1.615" transform="translate(14.303 21.711)"/><path class="a" d="M4.712,36.244H16.127a1.712,1.712,0,0,0,1.712-1.712V16.11L14.415,10.4V6.566h.571A.571.571,0,0,0,15.556,6V2.571A.571.571,0,0,0,14.986,2H5.854a.571.571,0,0,0-.571.571V6a.571.571,0,0,0,.571.571h.571V10.4L3,16.11V34.532A1.712,1.712,0,0,0,4.712,36.244Zm1.712-33.1H7.566V4.283H8.707V3.141H9.849V4.283H10.99V3.141h1.141V4.283h1.141V3.141h1.141V5.424H6.424Zm6.849,3.424v4.153l.933,1.554H6.633l.933-1.554V6.566ZM4.141,16.427l1.807-3.012h8.942L16.7,16.427V34.532a.571.571,0,0,1-.571.571H4.712a.571.571,0,0,1-.571-.571V32.82h9.132V16.839H4.141Zm7.99,12.4H9.849V27.136a2.21,2.21,0,0,0-1.305-2.151,2.306,2.306,0,0,0-2.523.6c-.88.88-.574,2.207-.053,3.234H4.141V17.981h7.99Zm-4.68.228c-.365-.485-1.264-2.012-.623-2.653a1.189,1.189,0,0,1,1.278-.358,1.1,1.1,0,0,1,.6,1.094V29.4a.571.571,0,0,0,.571.571h2.854v1.712H4.141V29.966H7a.571.571,0,0,0,.457-.913Z"/><path class="a" d="M12.712,39.424A1.712,1.712,0,1,0,11,37.712a1.712,1.712,0,0,0,1.712,1.712Zm0-2.283a.571.571,0,1,1-.571.571A.571.571,0,0,1,12.712,37.141Z" transform="translate(-3.434 -14.595)"/><path class="a" d="M6.712,35.424A1.712,1.712,0,1,0,5,33.712,1.712,1.712,0,0,0,6.712,35.424Zm0-2.283a.571.571,0,1,1-.571.571A.571.571,0,0,1,6.712,33.141Z" transform="translate(-0.859 -12.878)"/></g></svg>