<svg xmlns="http://www.w3.org/2000/svg" width="46.766" height="41.297" viewBox="0 0 46.766 41.297"><defs><style>.a{fill:#ae7a48;}</style></defs><g transform="translate(-833.5 -698.567)"><g transform="translate(848.417 712.201) rotate(71)"><path class="a" d="M18.821,15.776c-2.1,0-3.687-1.535-5.088-2.889-1.117-1.079-2.172-2.1-3.262-2.165-.763.01-1.531.825-2.418,1.768-1.378,1.464-3.092,3.286-5.906,3.286C.372,15.776,0,14.684,0,13.768A1.706,1.706,0,0,1,1.114,12.3c.374-.209.507-.305.507-.429,0-.177-.232-.345-.586-.583A1.8,1.8,0,0,1,0,9.866c0-.75.611-1.188,1.1-1.54a2.33,2.33,0,0,0,.515-.438A2.336,2.336,0,0,0,1.1,7.45C.611,7.1,0,6.66,0,5.91A1.8,1.8,0,0,1,1.035,4.487c.354-.237.586-.406.586-.583,0-.124-.133-.22-.508-.429A1.707,1.707,0,0,1,0,2.009C0,1.092.372,0,2.146,0,4.288,0,6,1.618,7.506,3.045,8.6,4.078,9.628,5.054,10.483,5.054c.789,0,1.611-.846,2.563-1.826C14.445,1.79,16.184,0,18.821,0c1.774,0,2.146,1.092,2.146,2.009a1.707,1.707,0,0,1-1.113,1.467c-.375.209-.508.305-.508.429,0,.177.232.345.586.583A1.8,1.8,0,0,1,20.967,5.91c0,.75-.611,1.188-1.1,1.54a2.058,2.058,0,0,0-.521.451,2.833,2.833,0,0,0,.521.425c.491.352,1.1.79,1.1,1.54a1.8,1.8,0,0,1-1.035,1.423c-.354.237-.586.406-.586.583,0,.124.133.22.507.429a1.706,1.706,0,0,1,1.114,1.467C20.967,14.684,20.594,15.776,18.821,15.776Zm-8.337-6.1h.028c1.487.08,2.684,1.236,3.951,2.46,1.32,1.275,2.685,2.594,4.358,2.594.926,0,1.1-.323,1.1-.958,0-.2-.137-.3-.575-.549S18.3,12.634,18.3,11.872a1.834,1.834,0,0,1,1.053-1.456c.333-.223.568-.393.568-.55,0-.211-.352-.463-.663-.686-.449-.322-.958-.686-.958-1.292s.509-.97.957-1.292c.311-.223.664-.476.664-.686,0-.157-.236-.327-.568-.55A1.834,1.834,0,0,1,18.3,3.9c0-.762.6-1.1,1.046-1.347s.575-.352.575-.549c0-.636-.169-.958-1.1-.958-2.192,0-3.695,1.546-5.02,2.91C12.729,5.063,11.717,6.1,10.483,6.1c-1.273,0-2.452-1.115-3.7-2.3C5.418,2.516,3.87,1.051,2.146,1.051c-.926,0-1.1.323-1.1.958,0,.2.137.3.575.549S2.671,3.142,2.671,3.9A1.834,1.834,0,0,1,1.619,5.36c-.333.223-.568.393-.568.55,0,.211.353.463.664.686.449.322.957.686.957,1.292s-.509.971-.958,1.292c-.311.223-.663.476-.663.686,0,.157.236.327.568.55a1.834,1.834,0,0,1,1.053,1.456c0,.762-.6,1.1-1.046,1.346s-.575.353-.575.549c0,.636.169.958,1.1.958,2.359,0,3.837-1.57,5.14-2.955C8.3,10.691,9.262,9.672,10.483,9.672ZM1.623,7.9Z" transform="translate(0 0)"/><path class="a" d="M4.109,2.151a7.033,7.033,0,0,1-3.9-1.2A.525.525,0,1,1,.837.1h0a6.069,6.069,0,0,0,3.271,1A4.978,4.978,0,0,0,7.339.138a.525.525,0,1,1,.71.775A5.983,5.983,0,0,1,4.109,2.151Z" transform="translate(6.374 5.419)"/><path class="a" d="M7.692,2.15a.524.524,0,0,1-.356-.139,4.979,4.979,0,0,0-3.227-.96,6.069,6.069,0,0,0-3.271,1A.525.525,0,0,1,.213,1.2,7.033,7.033,0,0,1,4.109,0,5.983,5.983,0,0,1,8.048,1.238a.525.525,0,0,1-.356.912Z" transform="translate(6.374 8.227)"/></g><path class="a" d="M29.027,17.179c-1.821-2.059-4.516-2.578-5.709-1.667a3.247,3.247,0,0,0-1.18,2.072,2.747,2.747,0,0,0-2,.4,3.159,3.159,0,0,0-1.175,1.97,2.774,2.774,0,0,0-2.045.39,2.6,2.6,0,0,0-.991,1.823,2.863,2.863,0,0,0-2.205.369,2.455,2.455,0,0,0-.915,1.613,2.244,2.244,0,0,0-.015.355,2.834,2.834,0,0,0-2.151.376,3.139,3.139,0,0,0-1.18,2.014,2.627,2.627,0,0,0-1.791.419c-.757.58-1.461,1.472-.309,3.246a5.138,5.138,0,0,0,1.45,2.734,3.874,3.874,0,0,0,2.61,1.154,1.985,1.985,0,0,0,.884-.193,3.121,3.121,0,0,0,.38,1.066.586.586,0,0,0,.169.167,3.246,3.246,0,0,0,1.581.533,1.38,1.38,0,0,0,1.416-1.357,3.357,3.357,0,0,0-.019-.9c.041,0,.08.012.123.013h.036a2.367,2.367,0,0,0,1.775-.964,2.96,2.96,0,0,0,.721-1.567,1.949,1.949,0,0,0,.618.117h.04a2.239,2.239,0,0,0,1.7-.894,2.987,2.987,0,0,0,.691-1.4,2.109,2.109,0,0,0,.723.131h.024a2.342,2.342,0,0,0,1.758-.924,2.961,2.961,0,0,0,.72-1.565,2.108,2.108,0,0,0,.718.129H25.5a2.343,2.343,0,0,0,1.758-.925,2.95,2.95,0,0,0,.732-1.654,2.1,2.1,0,0,0,.664.11h.024a2.343,2.343,0,0,0,1.758-.925C31.791,21.873,31.315,19.766,29.027,17.179ZM11.854,33.161c-.319.272-1.5.042-2.193-.683a3.542,3.542,0,0,1-1.125-2.117.221.221,0,0,1,.126-.183.517.517,0,0,1,.26-.06,3.471,3.471,0,0,1,1.9,1.059A3.616,3.616,0,0,1,11.9,33.039C11.9,33.122,11.874,33.144,11.854,33.161ZM14.688,34.5c-.023.17-.072.293-.129.319a1.506,1.506,0,0,1-.948-.254,4.5,4.5,0,0,1-.194-.729,6.586,6.586,0,0,0-.467-1.509,6.022,6.022,0,0,0-1.287-1.97c-.563-.583-2.3-1.935-3.585-1.2-.034.019-.065.041-.1.062-.176-.535.088-.74.4-.98.585-.447,2.592-.212,4.118,1.512,1.351,1.527,2.332,3.659,2.186,4.751Zm2.188-2.465a1.364,1.364,0,0,1-.887.557h0a.833.833,0,0,1-.542-.254,11.85,11.85,0,0,0-2.063-3.366,6.418,6.418,0,0,0-2.75-1.845,1.819,1.819,0,0,1,.725-1.323c.585-.447,2.592-.213,4.117,1.512,1.838,2.078,2.311,3.666,1.4,4.72ZM19.957,29.7a1.145,1.145,0,0,1-.815.487h-.009a1.252,1.252,0,0,1-.79-.416,9.04,9.04,0,0,0-1.992-3.224,6.521,6.521,0,0,0-2.262-1.658.908.908,0,0,1-.117-.591,1.3,1.3,0,0,1,.463-.829,2.376,2.376,0,0,1,2.014.043l.009,0a5.265,5.265,0,0,1,2.094,1.465C20.392,27.055,20.864,28.643,19.957,29.7Zm3.2-2.192a1.242,1.242,0,0,1-.876.516,1.258,1.258,0,0,1-.776-.32,8.472,8.472,0,0,0-2.068-3.5,6.513,6.513,0,0,0-2.313-1.681,1.332,1.332,0,0,1,.513-1.246c.584-.447,2.592-.213,4.118,1.512,1.838,2.078,2.311,3.666,1.4,4.72Zm3.22-2.36a1.243,1.243,0,0,1-.876.517,1.347,1.347,0,0,1-.869-.4,8.986,8.986,0,0,0-2-3.252,6.466,6.466,0,0,0-2.5-1.753,1.8,1.8,0,0,1,.725-1.341,2.185,2.185,0,0,1,1.772-.037h0a5.178,5.178,0,0,1,2.344,1.549C26.808,22.5,27.28,24.091,26.373,25.145Zm3.179-2.468a1.243,1.243,0,0,1-.876.517,1.383,1.383,0,0,1-.854-.388,9.173,9.173,0,0,0-1.973-3.158A6.459,6.459,0,0,0,23.3,17.877a1.94,1.94,0,0,1,.729-1.432c.585-.447,2.592-.213,4.117,1.512C29.986,20.035,30.459,21.623,29.552,22.677Z" transform="translate(849.075 703.848)"/><path class="a" d="M12.249,13.7h-.207a1.68,1.68,0,1,1,0-3.359h.207c1.4,0,2.119-2.61,2.119-5.168S13.644,0,12.249,0h-.336a12.016,12.016,0,0,0,.052,24.032h.258c1.4,0,2.119-2.61,2.119-5.168S13.644,13.7,12.249,13.7Zm-2.687-1.68a2.433,2.433,0,0,0,1.628,2.3,4.593,4.593,0,0,0-.672,1.473,4.04,4.04,0,0,1-2.558-3.773,4.106,4.106,0,0,1,2.558-3.773,4.593,4.593,0,0,0,.672,1.473A2.433,2.433,0,0,0,9.561,12.016Zm.594,6.176A6.451,6.451,0,0,1,8.812,6.409c.026,0,.026-.026.052-.026.129-.078.258-.129.388-.207L9.406,6.1c.1-.052.207-.078.31-.129l.233-.078c.078-.026.129-.052.207-.078a15.674,15.674,0,0,0,.181,1.628,4.883,4.883,0,0,0-.026,9.122h.026A10.819,10.819,0,0,0,10.155,18.192Zm.1,2.507a8.864,8.864,0,0,1,0-17.365,11.947,11.947,0,0,0-.129,1.68H10.1c-.052.026-.1.026-.155.052H9.9c-.052.026-.129.052-.181.078a1.08,1.08,0,0,0-.258.1c-.1.052-.233.078-.336.129-.052.026-.129.052-.181.078-.155.078-.284.129-.413.207a.09.09,0,0,0-.052.026,7.228,7.228,0,0,0,1.705,13.256A7.8,7.8,0,0,0,10.259,20.7Zm3.333-15.53c0,2.687-.8,4.393-1.344,4.393S10.9,7.856,10.9,5.168s.8-4.393,1.344-4.393S13.592,2.481,13.592,5.168ZM.775,12.016A11.245,11.245,0,0,1,11.034.827a5.467,5.467,0,0,0-.646,1.705,9.619,9.619,0,0,0,0,18.967,5.467,5.467,0,0,0,.646,1.705A11.245,11.245,0,0,1,.775,12.016ZM12.249,23.257c-.543,0-1.344-1.705-1.344-4.393s.8-4.393,1.344-4.393,1.344,1.705,1.344,4.393S12.791,23.257,12.249,23.257Z" transform="matrix(0.719, -0.695, 0.695, 0.719, 845.997, 708.548)"/></g></svg>