<svg xmlns="http://www.w3.org/2000/svg" width="38.025" height="34.245" viewBox="0 0 38.025 34.245"><defs><style>.a{fill:#ff7978;}</style></defs><path class="a" d="M39.45,32.867h-.986a6.378,6.378,0,0,0,.4-.721,7.879,7.879,0,0,0,.587-2.992V25.436a6.226,6.226,0,0,0-3.718-5.64l.468-.7a9.617,9.617,0,0,1,2.679-2.679l.8-.533a.413.413,0,0,0-.229-.756,10.469,10.469,0,0,0-3.3.537,17.537,17.537,0,0,1,1.292-1.992l.271-.361a.413.413,0,0,0-.515-.617l-2.665,1.332c-.023-.366-.039-.732-.039-1.1V11.413a.413.413,0,0,0-.793-.159L32.729,13.6l-2.064-2.064a.413.413,0,0,0-.683.422l.3.91a9.728,9.728,0,0,1,.48,2.579,9.651,9.651,0,0,0-2.827-.729A.417.417,0,0,0,27.5,15a.412.412,0,0,0,.189.484l.195.111a7.894,7.894,0,0,1,3.163,3.827,6.248,6.248,0,0,0-4.583,4.465,3.312,3.312,0,0,0-2.283-.922H24.16a3.927,3.927,0,0,0-.388-1.336l-.044-.087-.738.369.044.087a3.1,3.1,0,0,1,.308,1.079,3.3,3.3,0,0,0-2.456,3.153c-.02,0-.039-.01-.059-.013a2.944,2.944,0,0,0-1.541.153,4,4,0,0,1,.571-1.535l-.7-.442a4.81,4.81,0,0,0-.568,1.28c-1.373-1.171-2.5-2.061-3.231-2.623-.606-.467-1.141-.867-1.625-1.228a18.74,18.74,0,0,1-3.674-3.247,15.581,15.581,0,0,1-2.15-3.449h.595a.412.412,0,0,0,.413-.413v-1.65a.412.412,0,0,0-.413-.413H2.73a.412.412,0,0,0-.413.413v1.65a.412.412,0,0,0,.413.413h.513A11.1,11.1,0,0,0,4.4,27.632,4.764,4.764,0,0,0,2.73,31.217a4.628,4.628,0,0,0,.311,1.65H2.317a.412.412,0,0,0-.413.413v2.063a.412.412,0,0,0,.413.413H3.565a9.913,9.913,0,0,0,9.892,9.489H28.31A9.913,9.913,0,0,0,38.2,35.755H39.45a.412.412,0,0,0,.413-.413V33.28a.412.412,0,0,0-.413-.413Zm-.825-3.713a7.706,7.706,0,0,1-.355,2.24L35.827,30.13a7.808,7.808,0,0,0,.262-1.248l.031.012.844-2.111,1.661.958Zm-4.56-4.043,2.177,1.256-.458,1.146a.386.386,0,0,0-.047-.009H33.057Zm-.4-1.182L31.191,22.5l.716-2.387a5.676,5.676,0,0,1,.6-.036h.685a5.366,5.366,0,0,1,1.946.362Zm4.257,8.214a5.238,5.238,0,0,1-.482.724H34.373a7.685,7.685,0,0,0,1.172-1.955Zm.7-6.7v1.349l-1.351-.779.986-2.464A5.434,5.434,0,0,1,38.624,25.44Zm-2.741-4.649a5.4,5.4,0,0,1,1.878,1.777l-1.21,3.025-2.164-1.248Zm.206-6.618a18.312,18.312,0,0,0-1.03,1.8l-.082.163-.166.081q-.123-.648-.2-1.3Zm-1.758,3.246a9.645,9.645,0,0,1,3.607-1.349,10.425,10.425,0,0,0-2.425,2.566l-.348.522-.37-.509a9.64,9.64,0,0,0-.838-1Zm-.65-3.962a18.481,18.481,0,0,0,.351,3.088l.017.085c-.051.031-.1.058-.155.089l-.551.344a9.675,9.675,0,0,0-.88-.684Zm-1.3.964-.63,1.512c-.049-.028-.1-.053-.148-.08a10.555,10.555,0,0,0-.331-2.541Zm-2.7,1.5a8.856,8.856,0,0,1,4.439,3.215l.157.215a6.275,6.275,0,0,0-1.094-.1h-.685c-.2,0-.406.013-.612.033a10.231,10.231,0,0,0-2.2-3.366ZM33.344,24.7,32.162,27.5H30.75l-.918-.475,1.115-3.716ZM29.1,21.276a5.408,5.408,0,0,1,1.89-.985l-.536,1.786-1.367-.789Zm-2.029,4.234a5.393,5.393,0,0,1,1.4-3.627l1.743,1.005-1.126,3.755L27.072,25.6Zm0,1.02,1.773.917-.017.056H27.072Zm8.241,1.8v.016a7,7,0,0,1-.37,1.859,6.921,6.921,0,0,1-1.468,2.454c-.06.071-.128.142-.2.21H21.99a6.269,6.269,0,0,0,1.3-2.711,3.667,3.667,0,0,0-.112-1.828ZM24.184,23.79a2.488,2.488,0,0,1,2.094,1.16c-.016.186-.031.372-.031.561V27.5H22.778c-.008-.012-.014-.024-.022-.035a3.017,3.017,0,0,0-1.021-.927,2.183,2.183,0,0,1-.027-.275,2.478,2.478,0,0,1,2.476-2.476Zm-5.13,3.624a2.211,2.211,0,0,1,1.632-.383,2.13,2.13,0,0,1,1.392.907,2.732,2.732,0,0,1,.4,2.063,5.294,5.294,0,0,1-1.653,2.866H17.07a4.833,4.833,0,0,0,.1-.961,4.549,4.549,0,0,0-1.292-3.233.609.609,0,0,1-.177-.444,3.2,3.2,0,0,0-.03-.419,2.116,2.116,0,0,1,1.285-.779,2.21,2.21,0,0,1,1.631.383A.412.412,0,0,0,19.054,27.414Zm-5.6,2.676a2.156,2.156,0,0,0-1.881,2.166,1.74,1.74,0,0,0,.12.611H10.686a4,4,0,0,1-.118-.961,3.718,3.718,0,0,1,1.044-2.643,1.429,1.429,0,0,0,.425-1.033c0-.056,0-.109.007-.162a1.653,1.653,0,0,1,1.412-1.7,1.692,1.692,0,0,1,1.419,1.869,1.424,1.424,0,0,0,.424,1.028,3.72,3.72,0,0,1,1.045,2.644,4,4,0,0,1-.118.961H15.218a1.74,1.74,0,0,0,.12-.611A2.156,2.156,0,0,0,13.457,30.09Zm1.056,2.166a.94.94,0,0,1-.233.611H12.633a.94.94,0,0,1-.233-.611c0-.585.512-1.341,1.056-1.341s1.056.755,1.056,1.341Zm-3.159-4.968a5.476,5.476,0,0,0-1.808-.836c-.381-.42-.76-.869-1.126-1.342a15.411,15.411,0,0,1-2.993-5.945,10.7,10.7,0,0,1-.056-4.039h.641a8.811,8.811,0,0,0,.452,3.02c.447,1.325,1.32,2.295,4.21,5.507.635.706,1.305,1.391,1.987,2.058a2.482,2.482,0,0,0-1.308,1.576ZM9.426,19.1a19.612,19.612,0,0,0,3.814,3.381c.48.359,1.013.757,1.615,1.221.72.553,1.822,1.424,3.169,2.572A2.835,2.835,0,0,0,15.4,26.9a2.312,2.312,0,0,0-1.534-1.308V24.2h-.825v.728c-.6-.6-1.193-1.2-1.756-1.829-2.8-3.115-3.649-4.056-4.042-5.22a8,8,0,0,1-.4-2.756H7A16.5,16.5,0,0,0,9.426,19.1ZM3.142,14.3v-.825H8.093V14.3Zm-.415,7.38A10.351,10.351,0,0,1,4.2,15.126h.337a11.47,11.47,0,0,0,.088,4.213,16,16,0,0,0,3.147,6.276c.175.226.354.445.533.66-.069,0-.137-.009-.207-.009a5.646,5.646,0,0,0-3.027.867,10.321,10.321,0,0,1-2.339-5.452ZM7.681,27.11v.755a1.815,1.815,0,0,1-.6-.254l-.458.687a2.638,2.638,0,0,0,2.933,0L9.1,27.611a1.814,1.814,0,0,1-.6.254v-.755a4.7,4.7,0,0,1,2.707,1.114v.01a.608.608,0,0,1-.179.441,4.547,4.547,0,0,0-1.29,3.231,4.832,4.832,0,0,0,.1.961h-5.9a3.754,3.754,0,0,1-.386-1.65A4.307,4.307,0,0,1,7.681,27.11Zm29.36,10.708H27.485v.825h9.278a9.123,9.123,0,0,1-3.244,4.126h-8.51v.825h7.075a9.02,9.02,0,0,1-3.774.825H13.457a9.018,9.018,0,0,1-4.567-1.238H19.646v-.825H7.7a9.1,9.1,0,0,1-2.976-4.538h9.969v-.825H4.533a9.058,9.058,0,0,1-.143-1.238H37.376a9.03,9.03,0,0,1-.335,2.063Zm2-2.888H2.73V33.692H39.037Z" transform="translate(-1.837 -11)"/></svg>