<svg xmlns="http://www.w3.org/2000/svg" width="48.998" height="33.698" viewBox="0 0 48.998 33.698"><defs><style>.a{fill:#c21d1d;}.b{fill:none;}</style></defs><g transform="translate(-932.167 -507.409)"><path class="a" d="M30.465,21.426a3.9,3.9,0,0,0-4.586-.687l-1.1-1.1a12.035,12.035,0,0,0,.148-9.136,12.145,12.145,0,0,0-2.68-3.943L16.924,1.237l0,0,0,0-.066-.066a1.087,1.087,0,0,0-.087-.071A4.577,4.577,0,0,0,13.634,0C10.911,0,7.453,1.766,4.611,4.609a16.753,16.753,0,0,0-4.182,6.5c-.777,2.45-.49,4.513.807,5.81a3.824,3.824,0,0,0,.444.375L6.6,22.214a11.485,11.485,0,0,0,8.24,3.522h0a12.406,12.406,0,0,0,4.843-.985l1.091,1.091A3.9,3.9,0,0,0,24.22,31.57h0A3.891,3.891,0,0,0,28.1,28.063a3.9,3.9,0,0,0,2.369-6.637ZM12.713,12.71C8.84,16.582,4.074,18.094,2.066,16.085s-.5-6.774,3.375-10.647S14.08.055,16.088,2.063,16.586,8.838,12.713,12.71ZM28.8,25.279a1.569,1.569,0,0,1-1.624.359,1.175,1.175,0,0,0-1.5,1.5,1.557,1.557,0,0,1-.359,1.624,1.536,1.536,0,0,1-1.095.454h0a1.549,1.549,0,0,1-1.11-2.631l.038-.036a1.175,1.175,0,0,0,0-1.662L21.57,23.311l1.779-1.779,1.579,1.579a1.175,1.175,0,0,0,1.662,0l.037-.038a1.586,1.586,0,0,1,2.177.014A1.553,1.553,0,0,1,28.8,25.279Z" transform="matrix(0.998, 0.07, -0.07, 0.998, 934.369, 507.409)"/><g transform="translate(981.165 511.399) rotate(90)"><g transform="translate(0 0)"><path class="b" d="M0,.384A2.279,2.279,0,0,1,1.24,0C2.989,0,4.412,2.145,4.412,4.782h0c0,2.637-1.423,4.781-3.172,4.781A2.279,2.279,0,0,1,0,9.181a6.52,6.52,0,0,0,1.543-4.4A6.518,6.518,0,0,0,0,.384Z" transform="translate(0.799 2.872)"/><path class="b" d="M0,0,2.489,1.671,0,3.127Z" transform="translate(11.936 7.223)"/><ellipse class="b" cx="0.495" cy="0.545" rx="0.495" ry="0.545" transform="translate(19.37 5.533)"/><path class="a" d="M2.2,1.212A1.162,1.162,0,0,1,1.1,2.426,1.163,1.163,0,0,1,0,1.212,1.162,1.162,0,0,1,1.1,0,1.162,1.162,0,0,1,2.2,1.212Zm-1.6,0a.523.523,0,0,0,.5.546A.522.522,0,0,0,1.6,1.212.522.522,0,0,0,1.1.668.522.522,0,0,0,.606,1.212Z" transform="translate(18.7 4.866)"/><path class="a" d="M1.441,7.655A6.2,6.2,0,0,0,.1,3.488a.406.406,0,0,1,0-.528A2.237,2.237,0,0,1,1.692,2.2c1.545,0,2.83,1.956,3.085,4.518C7.216,2.5,10.994,0,15.022,0a9.807,9.807,0,0,1,1.219.076h0c3.818.476,7.256,3.169,9.432,7.39a.425.425,0,0,1,0,.377c-2.176,4.221-5.614,6.915-9.432,7.391h-.025a.192.192,0,0,1-.08-.02l-.021-.011a.257.257,0,0,1-.058-.047l-.011-.011A.328.328,0,0,1,16,15.072L16,15.055l0,0A17.971,17.971,0,0,1,14.56,9.411L12.021,11.2a.2.2,0,0,1-.118.039.208.208,0,0,1-.13-.047.368.368,0,0,1-.122-.286V6.629a.363.363,0,0,1,.128-.291.2.2,0,0,1,.254.006l2.459,1.99c-.008-.226-.017-.452-.017-.679a20.329,20.329,0,0,1,.474-4.576c.044-.174.186-.269.318-.21a.368.368,0,0,1,.159.422,19.882,19.882,0,0,0-.448,4.363,17.557,17.557,0,0,0,1.379,6.888c3.547-.5,6.739-3,8.8-6.887C23.065,3.707,19.807,1.191,16.2.741h0A9.509,9.509,0,0,0,15.022.668c-4.036,0-7.814,2.608-10.14,6.987,2.161,4.071,5.526,6.6,9.26,6.946a.315.315,0,0,1,.233.356.294.294,0,0,1-.251.31h-.018C10.393,14.921,7.03,12.5,4.777,8.591,4.521,11.151,3.237,13.1,1.692,13.1A2.235,2.235,0,0,1,.1,12.349a.406.406,0,0,1,0-.528A6.2,6.2,0,0,0,1.441,7.655Zm10.713-.432v3.127l2.065-1.456ZM1.692,12.437c1.451,0,2.632-2.145,2.632-4.781h0c0-2.637-1.181-4.782-2.632-4.782a1.672,1.672,0,0,0-1.029.384,7.379,7.379,0,0,1,1.281,4.4,7.376,7.376,0,0,1-1.281,4.4A1.675,1.675,0,0,0,1.692,12.437Z"/></g></g></g></svg>