<svg xmlns="http://www.w3.org/2000/svg" width="37.072" height="37.072" viewBox="0 0 37.072 37.072"><defs><style>.a{fill:#6fb91c;}</style></defs><g transform="translate(-1 -1)"><path class="a" d="M38.072,21.9a8.308,8.308,0,0,0-3.377-6.65,2.544,2.544,0,0,0-1.5-.494,2.517,2.517,0,0,0-1.77.728c-.087-.072-.166-.152-.255-.221a2.487,2.487,0,0,0-1.139-.466l.264-2.9c.006-.069.009-.139.009-.209a2.317,2.317,0,0,0-2.314-2.314h-.155a2.317,2.317,0,0,0-2.314,2.314c0,.07,0,.14.01.21l.265,2.912a2.56,2.56,0,0,0-1.055.449c-.107.08-.2.172-.3.257-.053-.055-.109-.106-.167-.156a3.494,3.494,0,0,0-.618-2.7,3.585,3.585,0,0,0-3.121-5.674,3.573,3.573,0,0,0-2.379-2.249,3.538,3.538,0,0,0-3-1.338,3.583,3.583,0,0,0-6.487-.6A3.6,3.6,0,0,0,5.311,5.489,4.779,4.779,0,0,0,4.288,13.92a3.571,3.571,0,0,0,1,4.184,3.462,3.462,0,0,0-.1.834A3.593,3.593,0,0,0,8.343,22.5l1.323,3.7a6.611,6.611,0,0,0-1.7,1.842l-3.133-.7a1.62,1.62,0,0,0-.365-.041,1.677,1.677,0,0,0-1.675,1.675v.237a1.657,1.657,0,0,0,.078.48H2.794a1.794,1.794,0,1,0,0,3.588h.078a1.657,1.657,0,0,0-.078.48V34A1.677,1.677,0,0,0,4.469,35.68a1.636,1.636,0,0,0,.364-.04l3.134-.7a6.572,6.572,0,0,0,5.59,3.128H13.7a6.6,6.6,0,0,0,1-.077l20.5-3.154a3.378,3.378,0,0,0,.932-6.4,8.27,8.27,0,0,0,1.939-5.291ZM30.438,16.21a7.351,7.351,0,0,1,2.85,5.816v2.2a7.382,7.382,0,0,1-.881,3.5l-4.795-.738a11.923,11.923,0,0,1-.3-2.643V21.91a11.9,11.9,0,0,1,.152-1.8c.146.013.292.026.446.026,1.7,0,2.99-.771,2.99-1.794a1.626,1.626,0,0,0-1.067-1.394l.088-.967A1.253,1.253,0,0,1,30.438,16.21Zm-2.609-5.643h.156A1.12,1.12,0,0,1,29.1,11.685a.957.957,0,0,1,0,.1l-.543,5.972.456.146c.524.167.689.388.689.435,0,.149-.636.6-1.794.6s-1.794-.449-1.794-.6c0-.047.165-.268.689-.436l.456-.146-.543-5.971c0-.034,0-.068,0-.1A1.12,1.12,0,0,1,27.829,10.567ZM25.9,16l.086.948a1.626,1.626,0,0,0-1.067,1.394c0,.659.538,1.21,1.373,1.521a13.174,13.174,0,0,0-.177,2.049v2.428a13.139,13.139,0,0,0,.232,2.449l-3.525-.542a7.2,7.2,0,0,1-.295-2.022v-2.2a7.284,7.284,0,0,1,2.924-5.811A1.337,1.337,0,0,1,25.9,16Zm-6.462,9.725a6.954,6.954,0,0,1-.5-2.569V21.9a7.11,7.11,0,0,1,2.891-5.689,1.348,1.348,0,0,1,.794-.26,1.321,1.321,0,0,1,.937.389,8.471,8.471,0,0,0-2.23,5.689v2.2a8.375,8.375,0,0,0,.207,1.824Zm.056-17.966.109.615.61-.136a2.387,2.387,0,0,1,2.226,4l-.411.419.411.419a2.377,2.377,0,0,1,.686,1.674c0,.018,0,.036,0,.054a2.478,2.478,0,0,0-2,.439,8.336,8.336,0,0,0-2.526,3.037q-.34-1.058-.71-2.023a8.481,8.481,0,0,1,2.626-4.63l-.374-.466L19.76,10.7a9.464,9.464,0,0,0-2.609,3.77,37.155,37.155,0,0,0-2.494-4.822l-1.006.647a35.193,35.193,0,0,1,1.989,3.742A9.851,9.851,0,0,0,11.7,13.56l.119,1.19c.9-.09,3.447-.047,4.636,1.168.419,1.03.832,2.16,1.2,3.37a10.122,10.122,0,0,0-4.1-.947v1.2a8.037,8.037,0,0,1,4.266,1.271,8.075,8.075,0,0,0-.08,1.091v1.257a8.159,8.159,0,0,0,.355,2.363l-3.4-.523c-.179-.028-.361-.046-.542-.059h0a2.389,2.389,0,0,1-2.227-3.26l.175-.457-.414-.262a2.379,2.379,0,0,1-.721-3.338l.373-.56-.6-.3a3.583,3.583,0,0,1,.634-6.644L11.745,10l.056-.382a2.4,2.4,0,0,1,2.354-2.044.473.473,0,0,1,.065.008c.042.006.084.011.127.014l.429.035.169-.4a2.387,2.387,0,0,1,4.549.519ZM9.195,21.33H8.773a2.374,2.374,0,0,1-2.227-3.242l.175-.457-.414-.262a2.379,2.379,0,0,1-.722-3.338l.373-.56-.6-.3a3.583,3.583,0,0,1,.633-6.644l.371-.106.056-.382A2.4,2.4,0,0,1,8.773,3.99.5.5,0,0,1,8.84,4c.041.005.081.011.123.014l.431.036.169-.4a2.387,2.387,0,0,1,4.548.52l.109.615.61-.136a2.192,2.192,0,0,1,1.307.086,3.58,3.58,0,0,0-2.1,1.648,3.6,3.6,0,0,0-3.344,2.693,4.8,4.8,0,0,0-3.115,4.48,4.757,4.757,0,0,0,2.092,3.951,3.572,3.572,0,0,0,1,4.185,3.458,3.458,0,0,0-.1.833,3.6,3.6,0,0,0,1.168,2.654,6.513,6.513,0,0,0-1.024.395ZM3.99,29.221v-.237a.487.487,0,0,1,.584-.468l2.846.633c-.069.181-.132.364-.185.552H4.469A.48.48,0,0,1,3.99,29.221ZM2.2,31.495a.6.6,0,0,1,.6-.6H7.009c-.017.2-.03.4-.03.6s.013.4.03.6H2.794A.6.6,0,0,1,2.2,31.495Zm2.377,2.978A.492.492,0,0,1,3.99,34v-.237a.48.48,0,0,1,.48-.48H7.234c.053.188.116.371.185.552Zm32.3-2.978a2.178,2.178,0,0,1-1.857,2.165l-20.5,3.154a5.393,5.393,0,0,1-.819.063h-.141a5.381,5.381,0,1,1,0-10.763H13.7a5.456,5.456,0,0,1,.819.062l20.5,3.154A2.179,2.179,0,0,1,36.876,31.495Zm0-8.341a7.078,7.078,0,0,1-2.04,4.938l-1.188-.183a8.577,8.577,0,0,0,.836-3.687v-2.2a8.578,8.578,0,0,0-2.2-5.712,1.321,1.321,0,0,1,.907-.365,1.339,1.339,0,0,1,.794.261A7.108,7.108,0,0,1,36.876,21.9Z"/><rect class="a" width="1.651" height="6.604" transform="translate(12.556 28.167)"/><rect class="a" width="1.651" height="6.604" transform="translate(17.509 28.167)"/><rect class="a" width="1.651" height="6.604" transform="translate(22.461 28.167)"/><rect class="a" width="0.825" height="3.302" transform="translate(27.414 29.818)"/><rect class="a" width="0.825" height="1.651" transform="translate(32.367 30.643)"/></g></svg>