<svg xmlns="http://www.w3.org/2000/svg" width="52.961" height="45.253" viewBox="0 0 52.961 45.253"><defs><style>.a{fill:#fd5e53;}.b{fill:none;stroke:#000;stroke-linecap:round;stroke-linejoin:round;stroke-width:3px;}.c{fill:#fff;opacity:0.79;}</style></defs><path class="a" d="M11.533,3.721H4.363v7.17h7.17Zm1.793-1.793V12.683H2.571V1.928ZM6.156,5.513H9.741V9.1H6.156Zm23.3-1.793h-7.17v7.17h7.17V3.721Zm1.793-1.793V12.683H20.5V1.928H31.251Zm-7.17,3.585h3.585V9.1H24.081ZM11.533,21.646H4.363v7.17h7.17Zm1.793-1.793V30.608H2.571V19.853Zm-7.17,3.585H9.741v3.585H6.156Zm8.963-21.51h1.793V3.721H15.118Zm1.793,1.793H18.7V5.513H16.911ZM15.118,5.513h1.793V7.306H15.118Zm1.793,1.793H18.7V9.1H16.911ZM15.118,9.1h1.793v1.793H15.118Zm1.793,1.793H18.7v1.793H16.911Zm-1.793,1.793h1.793v1.793H15.118Zm0,3.585h1.793v1.793H15.118Zm1.793,1.793H18.7v1.793H16.911Zm-1.793,1.793h1.793v1.793H15.118Zm1.793,1.793H18.7v1.793H16.911Zm-1.793,1.793h1.793v1.793H15.118Zm1.793,1.793H18.7v1.793H16.911Zm-1.793,1.793h1.793v1.793H15.118Zm1.793,1.793H18.7v1.793H16.911ZM29.458,16.268h1.793v1.793H29.458Zm-25.1,0H6.156v1.793H4.363Zm1.793-1.793H7.948v1.793H6.156Zm-3.585,0H4.363v1.793H2.571Zm7.17,0h1.793v1.793H9.741Zm1.793,1.793h1.793v1.793H11.533Zm1.793-1.793h1.793v1.793H13.326ZM18.7,16.268H20.5v1.793H18.7ZM20.5,14.476h1.793v1.793H20.5Zm1.793,1.793h1.793v1.793H22.288Zm1.793-1.793h1.793v1.793H24.081Zm1.793,1.793h1.793v1.793H25.873Zm1.793-1.793h1.793v1.793H27.666Zm1.793,5.378h1.793v1.793H29.458Zm-10.755,0H20.5v1.793H18.7ZM20.5,18.061h1.793v1.793H20.5Zm1.793,1.793h1.793v1.793H22.288Zm3.585,0h1.793v1.793H25.873Zm1.793-1.793h1.793v1.793H27.666Zm1.793,5.378h1.793v1.793H29.458Zm-10.755,0H20.5v1.793H18.7ZM20.5,21.646h1.793v1.793H20.5Zm3.585,0h1.793v1.793H24.081Zm1.793,1.793h1.793v1.793H25.873Zm1.793-1.793h1.793v1.793H27.666Zm1.793,5.378h1.793v1.793H29.458ZM20.5,25.231h1.793v1.793H20.5Zm1.793,1.793h1.793v1.793H22.288Zm1.793-1.793h1.793v1.793H24.081Zm1.793,1.793h1.793v1.793H25.873ZM20.5,28.816h1.793v1.793H20.5Zm3.585,0h1.793v1.793H24.081Zm3.585,0h1.793v1.793H27.666Z" transform="translate(-2.571 -1.928)"/><g transform="translate(14.34 6.631)"><path class="b" d="M36.944,20.722A16.222,16.222,0,1,1,20.722,4.5,16.222,16.222,0,0,1,36.944,20.722Z" transform="translate(-4.5 -4.5)"/><path class="b" d="M33.8,33.8l-8.821-8.821" transform="translate(2.704 2.704)"/></g><circle class="c" cx="14.5" cy="14.5" r="14.5" transform="translate(15.68 8)"/></svg>