<svg xmlns="http://www.w3.org/2000/svg" width="55.541" height="46.253" viewBox="0 0 55.541 46.253"><defs><style>.a{fill:#fd5e53;}.b{fill:none;stroke:#000;stroke-linecap:round;stroke-linejoin:round;stroke-width:3px;}.c{fill:#fff;opacity:0.79;}</style></defs><path class="a" d="M0,31.5V4.5H1.266v27Zm1.888-.019V4.5h.643V31.481Zm1.908,0V4.5H4.42V31.481Zm3.154,0V4.5h.623V31.481Zm2.531,0V4.5h1.246V31.481Zm3.154,0V4.5h.623V31.481Zm1.266,0V4.5h.623V31.481Zm1.266,0V4.5h.623V31.481Zm2.511,0V4.5h1.266V31.481Zm3.154,0V4.5H22.1V31.481Zm2.531,0V4.5h1.266V31.481Zm2.531,0V4.5h1.266V31.481Zm1.888,0V4.5h1.266V31.481Zm3.174,0V4.5h1.888V31.481Zm2.511,0V4.5h.643V31.481Zm1.266.019V4.5H36v27Z" transform="translate(0 -4.5)"/><g transform="translate(16.92 7.631)"><path class="b" d="M36.944,20.722A16.222,16.222,0,1,1,20.722,4.5,16.222,16.222,0,0,1,36.944,20.722Z" transform="translate(-4.5 -4.5)"/><path class="b" d="M33.8,33.8l-8.821-8.821" transform="translate(2.704 2.704)"/></g><circle class="c" cx="14.5" cy="14.5" r="14.5" transform="translate(18.26 9)"/></svg>