<svg xmlns="http://www.w3.org/2000/svg" width="147.451" height="145.199" viewBox="0 0 147.451 145.199"><defs><style>.a,.b,.h{fill:none;}.b{stroke:#fd5e53;stroke-width:3px;}.c{fill:#818080;}.d{fill:#fff;stroke:#707070;}.e{fill:#73d504;}.f,.g{stroke:none;}.g{fill:#010101;}</style></defs><g transform="translate(0 24.507)"><g transform="translate(29.919 4.749)"><g class="a" transform="translate(37.324 63.304)"><path class="f" d="M3.324-8.988s25.342-15.885,25.249-15.94c4.94-3.491,4.969-1.093,5.013,1.139L33.553,6.239c0,3.373-.082,6.751-2.107,8.183L4.19,30.446c-3.418,2.051-4.937.3-5.013-2.355l.1-30.371C-.721-5.653,2.045-7.916,3.324-8.988Z"/><path class="g" d="M 30.5849781036377 -22.67319297790527 C 30.49519157409668 -22.61176300048828 30.40156364440918 -22.54668235778809 30.30411148071289 -22.47782707214355 L 30.29440879821777 -22.4915599822998 C 29.95308113098145 -22.2280158996582 29.5539608001709 -21.97160339355469 29.11026763916016 -21.68655967712402 C 28.45061111450195 -21.26277160644531 27.48296737670898 -20.64677047729492 26.23420143127441 -19.85565948486328 C 24.1373348236084 -18.52724838256836 21.21441268920898 -16.68380355834961 17.54665756225586 -14.37656021118164 C 11.88499069213867 -10.8150110244751 6.156255722045898 -7.222737312316895 5.092386245727539 -6.555731773376465 C 4.056575775146484 -5.686700820922852 2.279067993164063 -4.140604019165039 2.279067993164063 -2.28068208694458 L 2.279067993164063 -2.275649070739746 L 2.279045104980469 -2.270626544952393 L 2.177406311035156 28.0461254119873 C 2.17848014831543 28.0738697052002 2.179813385009766 28.10081672668457 2.181373596191406 28.12692070007324 C 2.313711166381836 28.06289291381836 2.468526840209961 27.9801082611084 2.646934509277344 27.87306213378906 L 2.658456802368164 27.86615180969238 L 2.670034408569336 27.85935020446777 L 29.76168441772461 11.93265151977539 C 29.88179588317871 11.81587696075439 30.12831497192383 11.46877479553223 30.31166839599609 10.50039577484131 C 30.5349006652832 9.321384429931641 30.55339050292969 7.812040328979492 30.55339050292969 6.236028671264648 L 30.5849781036377 -22.67319297790527 M 32.25825500488281 -26.69122505187988 C 33.53664779663086 -26.69122505187988 33.55840682983398 -25.20663833618164 33.58620071411133 -23.78862571716309 L 33.55339050292969 6.239306449890137 C 33.55339050292969 9.611862182617188 33.4715461730957 12.9902286529541 31.44621276855469 14.42235088348389 L 4.190412521362305 30.4455509185791 C 3.146455764770508 31.0719165802002 2.2794189453125 31.34407424926758 1.576765060424805 31.34407424926758 C -0.02119827270507813 31.34407424926758 -0.7699432373046875 29.93738174438477 -0.82275390625 28.09074020385742 L -0.7209320068359375 -2.28068208694458 C -0.7209320068359375 -5.65324878692627 2.044912338256836 -7.916149139404297 3.324068069458008 -8.987937927246094 C 3.324068069458008 -8.987937927246094 28.66613388061523 -24.87322616577148 28.57295608520508 -24.92794799804688 C 30.37525749206543 -26.20138549804688 31.5240421295166 -26.69122505187988 32.25825500488281 -26.69122505187988 Z"/></g><g transform="translate(0 0)"><g class="a" transform="translate(0 32.371) rotate(-39)"><path class="f" d="M2.771,0,33.629,4.024c4.628.988,6.935,4.625,7.218,5.845L50.98,37.95c.765,1.978.9,4.269-2.23,4.546L18,39.009c-4.9-1.329-6.711-3.389-8.141-7.28L.8,5.359C.378,4.158-1.568,0,2.771,0Z"/><path class="g" d="M 3.173042297363281 3.077857971191406 C 3.250347137451172 3.327217102050781 3.353263854980469 3.621803283691406 3.481521606445313 3.960617065429688 C 3.534980773925781 4.101860046386719 3.585479736328125 4.235260009765625 3.630580902099609 4.363388061523438 L 3.634307861328125 4.373989105224609 L 3.637958526611328 4.384616851806641 L 12.68693161010742 30.72365951538086 C 13.29817581176758 32.37993240356445 13.89617919921875 33.40343475341797 14.68365859985352 34.14222717285156 C 15.52887344360352 34.93519592285156 16.76853179931641 35.54544448852539 18.5736083984375 36.05518341064453 L 48.31880569458008 39.42766952514648 C 48.28398895263672 39.31266784667969 48.23911666870117 39.18088912963867 48.18135070800781 39.03144836425781 L 48.16915130615234 38.99989700317383 L 48.15766906738281 38.96807861328125 L 38.02486038208008 10.88768768310547 L 37.96477890014648 10.72117805480957 L 37.93724060058594 10.60274124145508 C 37.74030303955078 10.09194564819336 36.25935363769531 7.701057434082031 33.11085510253906 6.982120513916016 L 3.173042297363281 3.077857971191406 M 2.770809173583984 0 L 33.6285400390625 4.024227142333984 C 38.25634002685547 5.012248992919922 40.56311798095703 8.649398803710938 40.84675979614258 9.869407653808594 L 50.97956848144531 37.94979858398438 C 51.74409866333008 39.92763900756836 51.88105773925781 42.21918869018555 48.75 42.49577713012695 L 18.00109100341797 39.00948715209961 C 13.10551834106445 37.68053817749023 11.2901496887207 35.62017059326172 9.860279083251953 31.72919845581055 L 0.8007278442382813 5.359367370605469 C 0.3778190612792969 4.157768249511719 -1.568309783935547 7.62939453125e-06 2.770809173583984 0 Z"/></g></g><path class="b" d="M-1985.294-3014.054l.212-37.556.617.412,12.137,27.169,14.557-9.7,2.393,1.275-.071,36.662" transform="translate(1985.294 3090.571)"/></g><g transform="translate(0)"><path class="c" d="M42.977,4.5H24.5A21.126,21.126,0,0,0,3.375,25.621V44.1a4.4,4.4,0,1,0,8.8,0v-18.8a12.061,12.061,0,0,1,3.677-8.235A12,12,0,0,1,24.182,13.3h18.8a4.4,4.4,0,0,0,0-8.8Z" transform="translate(-3.375 -4.5)"/><path class="c" d="M45.977,4.5h-18.8a4.4,4.4,0,0,0,0,8.8h18.8a12,12,0,0,1,8.329,3.772,12.061,12.061,0,0,1,3.677,8.235V44.1a4.4,4.4,0,1,0,8.8,0v-18.8A20.831,20.831,0,0,0,45.977,4.5Z" transform="translate(63.966 -4.5)"/><path class="c" d="M42.977,56.858h-18.8a12,12,0,0,1-8.329-3.772,12.061,12.061,0,0,1-3.677-8.235v-18.8a4.4,4.4,0,1,0-8.8,0v18.8A20.831,20.831,0,0,0,24.182,65.658h18.8a4.4,4.4,0,0,0,0-8.8Z" transform="translate(-3.375 55.033)"/><path class="c" d="M62.383,21.656a4.413,4.413,0,0,0-4.4,4.4v18.8a12.061,12.061,0,0,1-3.677,8.235,12,12,0,0,1-8.329,3.772h-18.8a4.4,4.4,0,0,0,0,8.8H45.662A21.147,21.147,0,0,0,66.783,44.537V26.056A4.413,4.413,0,0,0,62.383,21.656Z" transform="translate(63.966 55.033)"/></g></g><g transform="translate(98.437)"><g class="d" transform="translate(4.935 3.32)"><ellipse class="f" cx="22.039" cy="21.279" rx="22.039" ry="21.279"/><ellipse class="h" cx="22.039" cy="21.279" rx="21.539" ry="20.779"/></g><path class="e" d="M49.577,25.07A24.507,24.507,0,1,1,25.07.563,24.507,24.507,0,0,1,49.577,25.07ZM22.235,38.046,40.418,19.863a1.581,1.581,0,0,0,0-2.236l-2.236-2.236a1.581,1.581,0,0,0-2.236,0L21.117,30.22,14.194,23.3a1.581,1.581,0,0,0-2.236,0L9.722,25.533a1.581,1.581,0,0,0,0,2.236L20,38.046a1.581,1.581,0,0,0,2.236,0Z" transform="translate(-0.563 -0.563)"/></g></svg>