<svg xmlns="http://www.w3.org/2000/svg" width="29.766" height="29.364" viewBox="0 0 29.766 29.364"><defs><style>.a{fill:#73d504;}</style></defs><g transform="translate(-4315.264 -972.635)"><g transform="translate(4315.264 972.635)"><g transform="translate(0 0)"><g transform="translate(15.9 0)"><path class="a" d="M.086,1.3a1.3,1.3,0,1,1,2.608,0V4.068L2.608,15.611a1.3,1.3,0,0,1-2.608,0Z" transform="translate(11.961 0) rotate(45)"/><path class="a" d="M20.52,5.608H15.3A1.3,1.3,0,1,1,15.3,3h6.52a1.3,1.3,0,0,1,1.3,1.3v6.52a1.3,1.3,0,1,1-2.608,0Z" transform="translate(-9.803 -2.399)"/></g><path class="a" d="M21.561,16.085a1.3,1.3,0,1,1,2.608,0V23.42a3.749,3.749,0,0,1-3.749,3.749H5.749A3.749,3.749,0,0,1,2,23.42V8.749A3.749,3.749,0,0,1,5.749,5H13.7a1.3,1.3,0,1,1,0,2.608H5.749A1.141,1.141,0,0,0,4.608,8.749V23.42a1.141,1.141,0,0,0,1.141,1.141H20.42a1.141,1.141,0,0,0,1.141-1.141Z" transform="translate(-2 2.195)"/></g></g><path class="a" d="M.821,5.681a.821.821,0,1,0,0,1.643.821.821,0,1,0,0-1.643Zm2.464,0V7.324h9.856V5.681ZM.821,8.967a.821.821,0,1,0,0,1.643.821.821,0,1,0,0-1.643Zm2.464,0v1.643h9.856V8.967ZM.821,12.252a.821.821,0,1,0,0,1.643.821.821,0,1,0,0-1.643Zm2.464,0v1.643h9.856V12.252Z" transform="translate(4319.172 982.35)"/></g></svg>