<svg xmlns="http://www.w3.org/2000/svg" width="34" height="39.532" viewBox="0 0 34 39.532"><defs><style>.a,.b{fill:#fff;}.a{font-size:10px;font-family:Poppins-Light, Poppins;font-weight:300;}.b{stroke:#fff;stroke-linecap:round;stroke-linejoin:round;stroke-width:3px;}</style></defs><g transform="translate(-174.411 -757.758)"><g transform="translate(174.411 783.289)"><text class="a" transform="translate(0 10)"><tspan x="0" y="0">Orders</tspan></text></g><g transform="translate(176 757.758)"><path class="b" d="M13.906,30.953A.953.953,0,1,1,12.953,30,.953.953,0,0,1,13.906,30.953Z" transform="translate(-3.828 -10.391)"/><path class="b" d="M30.406,30.953A.953.953,0,1,1,29.453,30,.953.953,0,0,1,30.406,30.953Z" transform="translate(-9.844 -10.391)"/><path class="b" d="M1.5,1.5H5.313L7.867,14.262A1.906,1.906,0,0,0,9.773,15.8h9.264a1.906,1.906,0,0,0,1.906-1.535l1.525-8H6.266" transform="translate(0 0)"/></g></g></svg>