<svg xmlns="http://www.w3.org/2000/svg" width="23.906" height="21.25" viewBox="0 0 23.906 21.25"><defs><style>.a{fill:#73d504;}</style></defs><path class="a" d="M20.948,13.281H8.781l.272,1.328h11.14a1,1,0,0,1,.971,1.217l-.229,1.008a2.325,2.325,0,1,1-2.64.432h-8.7a2.324,2.324,0,1,1-2.783-.355L3.9,2.656H1a1,1,0,0,1-1-1V1A1,1,0,0,1,1,0H5.251a1,1,0,0,1,.976.8l.38,1.86h16.3a1,1,0,0,1,.971,1.217l-1.962,8.633A1,1,0,0,1,20.948,13.281ZM16.934,6.973H14.941V5.313a.664.664,0,0,0-.664-.664h-.664a.664.664,0,0,0-.664.664v1.66H10.957a.664.664,0,0,0-.664.664V8.3a.664.664,0,0,0,.664.664h1.992v1.66a.664.664,0,0,0,.664.664h.664a.664.664,0,0,0,.664-.664V8.965h1.992A.664.664,0,0,0,17.6,8.3V7.637A.664.664,0,0,0,16.934,6.973Z"/></svg>