<svg xmlns="http://www.w3.org/2000/svg" width="24" height="24" viewBox="0 0 24 24"><defs><style>.a{fill:#f5caca;}.b,.d{fill:#ff4141;}.c,.d{stroke:none;}</style></defs><g transform="translate(-323 -257)"><g class="a" transform="translate(323 257)"><path class="c" d="M 12 23 C 9.061790466308594 23 6.299449920654297 21.85580062866211 4.221819877624512 19.77817916870117 C 2.144200086593628 17.7005500793457 1 14.93820953369141 1 12 C 1 9.061790466308594 2.144200086593628 6.299449920654297 4.221819877624512 4.221819877624512 C 6.299449920654297 2.144200086593628 9.061790466308594 1 12 1 C 14.93820953369141 1 17.7005500793457 2.144200086593628 19.77817916870117 4.221819877624512 C 21.85580062866211 6.299449920654297 23 9.061790466308594 23 12 C 23 14.93820953369141 21.85580062866211 17.7005500793457 19.77817916870117 19.77817916870117 C 17.7005500793457 21.85580062866211 14.93820953369141 23 12 23 Z"/><path class="d" d="M 12 2 C 6.485979080200195 2 2 6.485979080200195 2 12 C 2 17.51401901245117 6.485979080200195 22 12 22 C 17.51401901245117 22 22 17.51401901245117 22 12 C 22 6.485979080200195 17.51401901245117 2 12 2 M 12 0 C 18.62742042541504 0 24 5.372579574584961 24 12 C 24 18.62742042541504 18.62742042541504 24 12 24 C 5.372579574584961 24 0 18.62742042541504 0 12 C 0 5.372579574584961 5.372579574584961 0 12 0 Z"/></g><g transform="translate(333.522 262.818)"><path class="b" d="M17.214,23.079a1.627,1.627,0,1,1-1.627-1.627A1.627,1.627,0,0,1,17.214,23.079Zm-1.627-3.254A1.627,1.627,0,0,1,13.96,18.2V13.317a1.627,1.627,0,1,1,3.254,0V18.2A1.627,1.627,0,0,1,15.587,19.825Z" transform="translate(-13.96 -11.69)"/></g></g></svg>