<svg xmlns="http://www.w3.org/2000/svg" width="36.997" height="37.767" viewBox="0 0 36.997 37.767"><defs><style>.a{fill:none;}.b{fill:#fff;}</style></defs><rect class="a" width="36.997" height="37.767" transform="translate(0)"/><g transform="translate(11.302 4.593)"><path class="b" d="M71.7,195.01a5.538,5.538,0,0,1-4.59,3.02,5.54,5.54,0,0,1-4.591-3.02,5.8,5.8,0,0,0-3.348,5.247v5.169a1.994,1.994,0,0,0,2,1.988H73.045a1.992,1.992,0,0,0,2-1.988v-5.169A5.8,5.8,0,0,0,71.7,195.01Z" transform="translate(-59.167 -187.363)"/><path class="b" d="M156.112,16.622c2.333,0,4.223-2.723,4.223-5.027a4.224,4.224,0,0,0-8.447,0C151.888,13.9,153.778,16.622,156.112,16.622Z" transform="translate(-148.172 -7.421)"/></g></svg>