<svg width="18" height="22" xmlns="http://www.w3.org/2000/svg">
 <defs>
  <style>.a{fill:none;}.b{fill:#fff;}</style>
 </defs>
 <g>
  <title>background</title>
  <rect fill="none" id="canvas_background" height="24" width="20" y="-1" x="-1"/>
 </g>
 <g>
  <title>Layer 1</title>
  <rect stroke="null" id="svg_1" x="1" y="1" height="20.97556" width="16.7831" class="a"/>
  <g id="svg_2">
   <path id="svg_3" d="m13.70626,8.77216a5.538,5.538 0 0 1 -4.59,3.02a5.54,5.54 0 0 1 -4.591,-3.02a5.8,5.8 0 0 0 -3.348,5.247l0,5.169a1.994,1.994 0 0 0 2,1.988l11.874,0a1.992,1.992 0 0 0 2,-1.988l0,-5.169a5.8,5.8 0 0 0 -3.345,-5.247z" class="b"/>
   <path id="svg_4" d="m9.11326,10.32617c2.333,0 4.223,-2.723 4.223,-5.027a4.224,4.224 0 0 0 -8.447,0c0,2.305 1.89,5.027 4.224,5.027z" class="b"/>
  </g>
 </g>
</svg>