<svg xmlns="http://www.w3.org/2000/svg" width="29.622" height="20.608" viewBox="0 0 29.622 20.608"><defs><style>.a{fill:#73d504;}</style></defs><g transform="translate(-86.485 -2572)"><g transform="translate(86.486 2572)"><path class="a" d="M2043.85,2576.146v-1.371a.445.445,0,0,1,.2-.369.81.81,0,0,0,.378-.7.828.828,0,1,0-1.3.679.44.44,0,0,1,.225.386v1.371Zm.883.047a12.6,12.6,0,0,1,11.467,12.549.444.444,0,0,1-.442.441h-24.313a.445.445,0,0,1-.446-.441,12.605,12.605,0,0,1,11.467-12.549v-1.2a1.712,1.712,0,1,1,2.848-1.281,1.7,1.7,0,0,1-.581,1.281Zm-.772.84h-.721A11.71,11.71,0,0,0,2031.9,2588.3h23.413A11.718,11.718,0,0,0,2043.961,2577.033Z" transform="translate(-2028.789 -2572)"/><path class="a" d="M1511.494,6725h26.634a1.492,1.492,0,1,1,0,2.983h-26.634a1.492,1.492,0,1,1,0-2.983Zm26.634.887h-26.634a.607.607,0,1,0,0,1.213h26.634a.607.607,0,1,0,0-1.213Z" transform="translate(-1510 -6707.375)"/></g></g></svg>