<svg xmlns="http://www.w3.org/2000/svg" width="19.243" height="19.252" viewBox="0 0 19.243 19.252"><defs><style>.a{fill:#fd5e53;}</style></defs><g transform="translate(-12.359 -12.354)"><path class="a" d="M31.035,28.325,24.707,22l6.328-6.328a1.919,1.919,0,1,0-2.714-2.714l-6.328,6.328-6.328-6.328a1.919,1.919,0,0,0-2.714,2.714L19.279,22,12.95,28.325a1.855,1.855,0,0,0,0,2.714,1.906,1.906,0,0,0,2.714,0l6.328-6.328,6.328,6.328a1.928,1.928,0,0,0,2.714,0A1.906,1.906,0,0,0,31.035,28.325Z" transform="translate(0 0)"/></g></svg>