<svg xmlns="http://www.w3.org/2000/svg" width="27.824" height="21.637" viewBox="0 0 27.824 21.637"><defs><style>.a{fill:#fff;}</style></defs><path class="a" d="M13.542,7.867,4.637,15.2v7.916a.773.773,0,0,0,.773.773l5.413-.014a.773.773,0,0,0,.769-.773V18.481a.773.773,0,0,1,.773-.773h3.091a.773.773,0,0,1,.773.773V23.1a.773.773,0,0,0,.773.775l5.411.015a.773.773,0,0,0,.773-.773V15.2l-8.9-7.329A.589.589,0,0,0,13.542,7.867Zm14.067,4.985L23.571,9.523V2.833a.58.58,0,0,0-.58-.58h-2.7a.58.58,0,0,0-.58.58V6.34L15.382,2.782a2.319,2.319,0,0,0-2.946,0L.209,12.852a.58.58,0,0,0-.077.816l1.232,1.5a.58.58,0,0,0,.817.079L13.542,5.886a.589.589,0,0,1,.739,0l11.362,9.358a.58.58,0,0,0,.816-.077l1.232-1.5a.58.58,0,0,0-.082-.818Z" transform="translate(0.001 -2.254)"/></svg>