<svg xmlns="http://www.w3.org/2000/svg" width="19.784" height="23.964" viewBox="0 0 19.784 23.964"><defs><style>.a{fill:#fff;}</style></defs><g transform="translate(0 0)"><path class="a" d="M145.584,132.545H125.8V110.3h5.449v1.277h-4.172v19.69h17.23v-19.69h-4.172V110.3h5.449Z" transform="translate(-125.8 -108.581)"/><path class="a" d="M262.381,369.1l-1.681-1.681.9-.9.777.779,1.9-1.9.9.9Z" transform="translate(-257.254 -357.163)"/><path class="a" d="M262.381,661l-1.681-1.678.9-.9.777.777,1.9-1.9.9.9Z" transform="translate(-257.254 -641.606)"/><path class="a" d="M324.263,47.205H314.1V44.436A1.437,1.437,0,0,1,315.536,43h7.291a1.437,1.437,0,0,1,1.436,1.436Zm-8.886-1.277h7.608V44.436a.159.159,0,0,0-.158-.158h-7.291a.159.159,0,0,0-.158.158Z" transform="translate(-309.289 -43)"/><rect class="a" width="6.476" height="1.277" transform="translate(9.706 9.225)"/><rect class="a" width="6.476" height="1.277" transform="translate(9.706 16.68)"/></g></svg>