<svg xmlns="http://www.w3.org/2000/svg" width="23.969" height="23.016" viewBox="0 0 23.969 23.016"><defs><style>.a{fill:#fff;stroke:#fff;stroke-linecap:round;stroke-linejoin:round;stroke-width:3px;}</style></defs><path class="a" d="M13.906,30.953A.953.953,0,1,1,12.953,30,.953.953,0,0,1,13.906,30.953Z" transform="translate(-3.828 -10.391)"/><path class="a" d="M30.406,30.953A.953.953,0,1,1,29.453,30,.953.953,0,0,1,30.406,30.953Z" transform="translate(-9.844 -10.391)"/><path class="a" d="M1.5,1.5H5.313L7.867,14.262A1.906,1.906,0,0,0,9.773,15.8h9.264a1.906,1.906,0,0,0,1.906-1.535l1.525-8H6.266" transform="translate(0 0)"/></svg>