<svg xmlns="http://www.w3.org/2000/svg" width="50.562" height="46.673" viewBox="0 0 50.562 46.673"><defs><style>.a,.b{fill:none;}.b{stroke:#fd5e53;}.c{fill:#818080;}.d,.e{stroke:none;}.e{fill:#010101;}</style></defs><g transform="translate(-25.734 -676.164)"><g transform="translate(37.304 678)"><g class="a" transform="translate(14.938 40.85)"><path class="d" d="M.781-19.845s9.8-6.143,9.764-6.164c1.911-1.35,1.922-.423,1.939.441l-.013,11.612c0,1.3-.032,2.611-.815,3.164L1.116-4.6C-.206-3.8-.793-4.478-.823-5.506l.039-11.745A3.579,3.579,0,0,1,.781-19.845Z"/><path class="e" d="M 11.48342132568359 -25.43368530273438 C 11.38088893890381 -25.37001800537109 11.26104164123535 -25.29090881347656 11.12195014953613 -25.19263076782227 L 11.11842346191406 -25.19762420654297 C 10.99316120147705 -25.10068321228027 10.84177112579346 -25.00342750549316 10.66613006591797 -24.89059066772461 C 10.41132068634033 -24.72688102722168 10.0374002456665 -24.48885154724121 9.554780960083008 -24.18310165405273 C 8.744040489196777 -23.66948127746582 7.613860607147217 -22.95670127868652 6.195640563964844 -22.06454086303711 C 3.989065170288086 -20.67647171020508 1.756145477294922 -19.27632522583008 1.370260238647461 -19.03439331054688 C 0.9508848190307617 -18.68285369873047 0.2166204452514648 -18.04952239990234 0.2166109085083008 -17.24804306030273 L 0.1773004531860352 -5.520896911621094 C 0.1813516616821289 -5.410144805908203 0.1949558258056641 -5.326908111572266 0.2094755172729492 -5.268806457519531 C 0.289830207824707 -5.292476654052734 0.4183683395385742 -5.343463897705078 0.6014003753662109 -5.453281402587891 L 0.6052408218383789 -5.455581665039063 L 0.609100341796875 -5.457851409912109 L 11.1007137298584 -11.62569046020508 C 11.47088146209717 -11.93721389770508 11.47089004516602 -13.24680709838867 11.47089004516602 -13.95770263671875 L 11.48342132568359 -25.43368530273438 M 11.97004127502441 -26.69122123718262 C 12.46440887451172 -26.69122123718262 12.47282314300537 -26.11711311340332 12.48357009887695 -25.56875228881836 L 12.47089004516602 -13.95661163330078 C 12.47089004516602 -12.65241241455078 12.43924045562744 -11.34596252441406 11.65602016448975 -10.79214096069336 L 1.115890502929688 -4.595781326293945 C 0.7121829986572266 -4.353559494018555 0.3768949508666992 -4.248313903808594 0.1051721572875977 -4.248313903808594 C -0.5127763748168945 -4.248313903808594 -0.8023290634155273 -4.792303085327148 -0.822749137878418 -5.50642204284668 L -0.7833795547485352 -17.25139236450195 C -0.7833795547485352 -18.55560302734375 0.2862005233764648 -19.43069076538086 0.7808704376220703 -19.84516143798828 C 0.7808704376220703 -19.84516143798828 10.58093070983887 -25.98818206787109 10.54490089416504 -26.00934219360352 C 11.241868019104 -26.50179481506348 11.68611431121826 -26.69122123718262 11.97004127502441 -26.69122123718262 Z"/></g><g transform="translate(0 0)"><g class="a" transform="translate(0 12.518) rotate(-39)"><path class="d" d="M1.072,0,13,1.556A3.8,3.8,0,0,1,15.8,3.817l3.918,10.859c.3.765.349,1.651-.862,1.758L6.961,15.085A3.938,3.938,0,0,1,3.813,12.27L.31,2.073C.146,1.608-.606,0,1.072,0Z"/><path class="e" d="M 1.014785766601563 1.001064300537109 C 1.014076232910156 1.001091957092285 1.013364791870117 1.001120567321777 1.012660980224609 1.00114917755127 C 1.038543701171875 1.13685417175293 1.100021362304688 1.333227157592773 1.196584701538086 1.588315963745117 C 1.218544006347656 1.646315574645996 1.237823486328125 1.697606086730957 1.252933502197266 1.74051570892334 L 1.254175186157227 1.74405574798584 L 1.255393981933594 1.74760627746582 L 4.755255699157715 11.93472862243652 C 5.18624210357666 13.10422325134277 5.621669769287109 13.67186737060547 7.151599884033203 14.10058689117432 L 18.85048294067383 15.42700099945068 C 18.86402320861816 15.42484283447266 18.87634468078613 15.42259788513184 18.88751602172852 15.42033672332764 C 18.87764549255371 15.33968734741211 18.84956550598145 15.21189594268799 18.78163528442383 15.03616619110107 L 18.77756500244141 15.0256462097168 L 18.77374458312988 15.01504611968994 L 14.85526466369629 4.156036376953125 L 14.83523368835449 4.100525856018066 L 14.82431697845459 4.053590774536133 C 14.75849342346191 3.861241340637207 14.14779281616211 2.839388847351074 12.83243370056152 2.542236328125 L 1.014785766601563 1.001064300537109 M 1.071504592895508 -3.814697265625e-06 L 13.0045337677002 1.556216239929199 C 14.79415416717529 1.938296318054199 15.68621444702148 3.344816207885742 15.79589462280273 3.816605567932129 L 19.71437454223633 14.67561626434326 C 20.01002502441406 15.44046592712402 20.0629940032959 16.32663536071777 18.85217475891113 16.43359565734863 L 6.961224555969238 15.08540630340576 C 5.06805419921875 14.57148551940918 4.366024017333984 13.77471542358398 3.813084602355957 12.27003574371338 L 0.3096542358398438 2.072525978088379 C 0.1461048126220703 1.607855796813965 -0.6064853668212891 -3.814697265625e-06 1.071504592895508 -3.814697265625e-06 Z"/></g></g><path class="b" d="M-1985.294-3037.086l.082-14.523.239.159,4.693,10.507,5.629-3.75.925.493-.027,14.178" transform="translate(1985.294 3066.676)"/></g><g transform="translate(25.734 676.164)"><path class="c" d="M18.689,4.5H11.543a8.17,8.17,0,0,0-8.168,8.168v7.147a1.7,1.7,0,1,0,3.4,0V12.546A4.664,4.664,0,0,1,8.2,9.362,4.641,4.641,0,0,1,11.421,7.9h7.268a1.7,1.7,0,0,0,0-3.4Z" transform="translate(-3.375 -4.5)"/><path class="c" d="M31.751,4.5H24.483a1.7,1.7,0,0,0,0,3.4h7.268a4.641,4.641,0,0,1,3.221,1.459,4.664,4.664,0,0,1,1.422,3.184v7.268a1.7,1.7,0,1,0,3.4,0V12.546A8.056,8.056,0,0,0,31.751,4.5Z" transform="translate(10.765 -4.5)"/><path class="c" d="M18.689,35.269H11.421A4.641,4.641,0,0,1,8.2,33.811a4.664,4.664,0,0,1-1.422-3.184V23.358a1.7,1.7,0,1,0-3.4,0v7.268a8.056,8.056,0,0,0,8.046,8.046h7.268a1.7,1.7,0,0,0,0-3.4Z" transform="translate(-3.375 8)"/><path class="c" d="M38.1,21.656a1.707,1.707,0,0,0-1.7,1.7v7.268a4.947,4.947,0,0,1-4.643,4.643H24.483a1.7,1.7,0,0,0,0,3.4H31.63A8.178,8.178,0,0,0,39.8,30.5V23.358A1.707,1.707,0,0,0,38.1,21.656Z" transform="translate(10.765 8)"/></g></g></svg>