<svg xmlns="http://www.w3.org/2000/svg" width="26.032" height="26.032" viewBox="0 0 26.032 26.032"><defs><style>.a{fill:rgba(251, 146, 10, 1);}</style></defs><path class="a" d="M15.587,4.287,26.5,26.028H4.678L15.587,4.287Zm0-2.358a1.882,1.882,0,0,0-1.548,1.135L2.928,25.208C2.076,26.722,2.8,27.96,4.537,27.96h22.1c1.736,0,2.461-1.238,1.609-2.752h0L17.134,3.063A1.881,1.881,0,0,0,15.587,1.928Zm1.627,21.151a1.627,1.627,0,1,1-1.627-1.627A1.627,1.627,0,0,1,17.214,23.079Zm-1.627-3.254A1.627,1.627,0,0,1,13.96,18.2V13.317a1.627,1.627,0,1,1,3.254,0V18.2A1.627,1.627,0,0,1,15.587,19.825Z" transform="translate(-2.571 -1.928)"/></svg>