<?xml version="1.0" encoding="UTF-8" standalone="no"?>
<!DOCTYPE svg PUBLIC "-//W3C//DTD SVG 1.1//EN" "http://www.w3.org/Graphics/SVG/1.1/DTD/svg11.dtd">
<svg version="1.1" xmlns="http://www.w3.org/2000/svg" xmlns:xlink="http://www.w3.org/1999/xlink" preserveAspectRatio="xMidYMid meet" viewBox="0 0 640 640" width="26" height="26">
<defs><path d="M107.3 502.7C54.5 449.89 25.42 379.68 25.42 305C25.42 230.32 54.5 160.11 107.3 107.3C160.11 54.5 230.32 25.42 305 25.42C379.68 25.42 449.89 54.5 502.7 107.3C555.5 160.11 584.58 230.32 584.58 305C584.58 379.68 555.5 449.89 502.7 502.7C449.89 555.5 379.68 584.58 305 584.58C230.32 584.58 160.11 555.5 107.3 502.7Z" id="bJhmMthjq"></path><path d="M305 50.83C164.85 50.83 50.83 164.85 50.83 305C50.83 445.15 164.85 559.17 305 559.17C445.15 559.17 559.17 445.15 559.17 305C559.17 164.85 445.15 50.83 305 50.83M610 305C610 473.45 473.45 610 305 610C136.55 610 0 473.45 0 305C0 136.55 136.55 0 305 0C473.45 0 610 136.55 610 305Z" id="h6YtSsowU"></path>
<path d="M308.79 478.7C285.95 478.7 267.43 460.18 267.43 437.34C267.43 414.51 285.95 395.99 308.79 395.99C331.63 395.99 350.14 414.51 350.14 437.34C350.14 460.18 331.63 478.7 308.79 478.7ZM267.43 313.34C267.43 300.93 267.43 201.64 267.43 189.23C267.43 166.39 285.95 147.87 308.79 147.87C331.63 147.87 350.14 166.39 350.14 189.23C350.14 201.64 350.14 300.93 350.14 313.34C350.11 336.16 331.61 354.64 308.79 354.64C285.97 354.64 267.46 336.16 267.43 313.34Z" id="a1z51LzDmo"></path></defs>
<g><g><g><use xlink:href="#bJhmMthjq" opacity="1" fill="#FCFAF9" fill-opacity="0"></use><g><use xlink:href="#bJhmMthjq" opacity="1" fill-opacity="0" stroke="#000000" stroke-width="1" stroke-opacity="0"></use></g></g>
<g><use xlink:href="#h6YtSsowU" opacity="1" fill="#FCFAF9" fill-opacity="1"></use><g><use xlink:href="#h6YtSsowU" opacity="1" fill-opacity="0" stroke="#000000" stroke-width="1" stroke-opacity="0"></use></g></g><g><use xlink:href="#a1z51LzDmo" opacity="1" fill="#FCFAF9" fill-opacity="1">
</use><g><use xlink:href="#a1z51LzDmo" opacity="1" fill-opacity="0" stroke="#000000" stroke-width="1" stroke-opacity="0"></use>
</g></g></g></g></svg>