<svg xmlns="http://www.w3.org/2000/svg" width="21.544" height="24.755" viewBox="0 0 21.544 24.755" fill="#FCFAF9"><defs><style>.b{fill:none;stroke:#FCFAF9;}</style></defs><g transform="translate(-328.193 -361.373)"><g transform="translate(41 100.162)"><path class="a" d="M59.929,37.7C54,37.7,49.2,38.523,49.2,39.545v20.3c0,1.014,4.8,1.845,10.729,1.845s10.729-.823,10.729-1.845v-20.3C70.659,38.531,65.855,37.7,59.929,37.7ZM69.2,45.612c0,.175-.15.407-.324.407h0c-.05,0-.075-.108-.025-.108A.422.422,0,0,0,69.2,45.612Zm-.549,4.8c0,.249-.208.582-.465.582h-.008c-.066,0-.1-.158-.033-.158A.584.584,0,0,0,68.648,50.416Zm-1.754,3.557c0,.391-.324.914-.731.914h-.008c-.108,0-.166-.249-.05-.249A.914.914,0,0,0,66.894,53.973Zm.432,6.915a47.376,47.376,0,0,1-7.4.507,48.494,48.494,0,0,1-7.4-.507c-2.726-.449-3.058-.964-3.092-1.039V39.927c1.039.831,5.344,1.454,10.488,1.454,1.862,0,3.615-.083,5.144-.224V54.081a1,1,0,1,0,1.961,0V40.925h0l.308-.05v9.549a.716.716,0,1,0,1.4,0V46.285h.042a.522.522,0,0,0,.457-.573V40.459a3.642,3.642,0,0,0,1.172-.524V59.857C70.385,59.923,70.052,60.439,67.326,60.887Z" transform="translate(238 223.511)"/></g><path class="b" d="M550.2,1399.607v20.576s2.539,1.762,10.761,1.82,9.784-1.82,9.784-1.82v-20.576" transform="translate(-221.507 -1036.377)"/></g></svg>